<svg width="25" height="25" viewBox="0 0 25 25" fill="none" xmlns="http://www.w3.org/2000/svg">
<path d="M2.08337 8.33331V13.9885C2.08337 18.1969 2.08337 20.301 3.44067 21.6094C4.79692 22.9166 6.97921 22.9166 11.3438 22.9166H13.6573C18.0219 22.9166 20.2042 22.9166 21.5605 21.6094C22.9167 20.301 22.9167 18.1969 22.9167 13.9885V8.33331M2.08337 8.33331H22.9167M2.08337 8.33331L3.08546 5.92915C3.8615 4.06456 4.25004 3.13331 5.03754 2.60831C5.82504 2.08331 6.83337 2.08331 8.85421 2.08331H16.1459C18.1657 2.08331 19.175 2.08331 19.9625 2.60831C20.75 3.13331 21.1386 4.0656 21.9146 5.92915L22.9167 8.33331M12.5 8.33331V2.08331M10.4167 12.5H14.5834" stroke="white" stroke-width="2" stroke-linecap="round" stroke-linejoin="round"/>
</svg>
