<svg width="34" height="34" viewBox="0 0 34 34" fill="none" xmlns="http://www.w3.org/2000/svg">
<path fill-rule="evenodd" clip-rule="evenodd" d="M2.83366 2.83325C2.45794 2.83325 2.0976 2.98251 1.83192 3.24818C1.56625 3.51386 1.41699 3.8742 1.41699 4.24992V24.0833C1.41699 26.0014 2.68774 27.6221 4.43308 28.1519C4.6929 29.009 5.21684 29.7621 5.9301 30.3037C6.64337 30.8453 7.50951 31.1478 8.40488 31.1679C9.30026 31.188 10.1791 30.9247 10.916 30.4157C11.6528 29.9066 12.21 29.1778 12.5081 28.3333H21.4926C21.7906 29.1778 22.3478 29.9066 23.0847 30.4157C23.8215 30.9247 24.7004 31.188 25.5958 31.1679C26.4911 31.1478 27.3573 30.8453 28.0705 30.3037C28.7838 29.7621 29.3078 29.009 29.5676 28.1519C30.4403 27.8871 31.2047 27.3486 31.7479 26.6159C32.291 25.8832 32.584 24.9953 32.5837 24.0833V18.4166C32.5837 17.4864 32.4004 16.5653 32.0445 15.7059C31.6885 14.8465 31.1667 14.0657 30.509 13.4079C29.8512 12.7502 29.0704 12.2284 28.211 11.8724C27.3516 11.5165 26.4305 11.3333 25.5003 11.3333H19.8337V4.24992C19.8337 3.8742 19.6844 3.51386 19.4187 3.24818C19.153 2.98251 18.7927 2.83325 18.417 2.83325H2.83366ZM21.4926 25.4999H19.8337V14.1666H25.5003C26.6275 14.1666 27.7085 14.6144 28.5055 15.4114C29.3026 16.2084 29.7503 17.2894 29.7503 18.4166V24.0833C29.7502 24.4589 29.6009 24.8192 29.3352 25.0848C28.9731 24.3261 28.394 23.6919 27.6713 23.2623C26.9486 22.8328 26.1147 22.6272 25.2752 22.6716C24.4357 22.7161 23.6282 23.0085 22.9548 23.512C22.2815 24.0154 21.7726 24.7072 21.4926 25.4999ZM7.49874 25.915C7.62943 25.7797 7.78575 25.6718 7.95859 25.5975C8.13142 25.5233 8.31732 25.4842 8.50542 25.4826C8.69353 25.4809 8.88007 25.5168 9.05418 25.588C9.22828 25.6592 9.38645 25.7644 9.51947 25.8974C9.65248 26.0305 9.75768 26.1886 9.82891 26.3627C9.90014 26.5368 9.93598 26.7234 9.93435 26.9115C9.93271 27.0996 9.89363 27.2855 9.81939 27.4583C9.74514 27.6312 9.63721 27.7875 9.50191 27.9182C9.23472 28.1762 8.87687 28.319 8.50542 28.3158C8.13398 28.3126 7.77866 28.1636 7.516 27.9009C7.25334 27.6382 7.10435 27.2829 7.10112 26.9115C7.09789 26.54 7.24068 26.1822 7.49874 25.915ZM24.0837 26.9166C24.0837 26.5409 24.2329 26.1805 24.4986 25.9148C24.7643 25.6492 25.1246 25.4999 25.5003 25.4999C25.876 25.4999 26.2364 25.6492 26.5021 25.9148C26.7677 26.1805 26.917 26.5409 26.917 26.9166C26.917 27.2923 26.7677 27.6526 26.5021 27.9183C26.2364 28.184 25.876 28.3333 25.5003 28.3333C25.1246 28.3333 24.7643 28.184 24.4986 27.9183C24.2329 27.6526 24.0837 27.2923 24.0837 26.9166Z" fill="black"/>
</svg>
