<svg width="25" height="25" viewBox="0 0 25 25" fill="none" xmlns="http://www.w3.org/2000/svg">
<path d="M6.8746 9.91009H17.1254M6.8746 9.91009H1M6.8746 9.91009L11.2151 21.9227M6.8746 9.91009L9.72865 5.20951L10.3827 4M17.1254 9.91009H23M17.1254 9.91009L12.7849 21.9227M17.1254 9.91009L14.2714 5.20951L13.5983 4M1 9.91009C1 10.4121 1.09395 10.914 1.28065 11.3873C1.53276 12.0267 2.04411 12.6159 3.06443 13.7932L7.18735 18.5452C8.84865 20.4598 9.6787 21.4183 10.6634 21.7697C10.8449 21.8343 11.0288 21.8853 11.2151 21.9227M1 9.91009C1 9.40812 1.09395 8.90616 1.28065 8.43167C1.53276 7.79226 2.04411 7.20424 3.06443 6.02581C3.61978 5.38759 3.89686 5.06848 4.21795 4.82108C4.69531 4.45544 5.2485 4.20258 5.83643 4.08127C6.23362 4 6.65459 4 7.49773 4H10.3827M11.2151 21.9227C11.7334 22.0258 12.2666 22.0258 12.7849 21.9227M10.3827 4H13.5983M23 9.91009C23 10.4121 22.9061 10.914 22.7194 11.3873C22.4672 12.0267 21.9559 12.6159 20.9356 13.7932L16.8127 18.5452C15.1514 20.4598 14.3213 21.4183 13.3366 21.7697C13.1565 21.8338 12.9722 21.8849 12.7849 21.9227M23 9.91009C23 9.40812 22.9061 8.90616 22.7194 8.43167C22.4672 7.79226 21.9559 7.20424 20.9356 6.02581C20.3802 5.38759 20.1031 5.06848 19.7821 4.82108C19.3047 4.45544 18.7515 4.20258 18.1636 4.08127C17.7664 4 17.3454 4 16.5023 4H13.5983" stroke="white" stroke-width="2" stroke-linecap="round" stroke-linejoin="round"/>
</svg>
