<svg width="32" height="32" viewBox="0 0 32 32" fill="none" xmlns="http://www.w3.org/2000/svg">
<g clip-path="url(#clip0_531_1061)">
<path d="M16 0C24.8365 0 32 7.16345 32 16C32 24.1803 25.8607 30.9259 17.9384 31.8828V20.8893L22.2667 20.8893L23.1646 16H17.9384V14.2708C17.9384 12.9789 18.1918 12.0845 18.7731 11.5131C19.3545 10.9417 20.2638 10.6932 21.5756 10.6932C21.9076 10.6932 22.2132 10.6965 22.4844 10.7031C22.8788 10.7128 23.2002 10.7293 23.424 10.7529V6.32064C23.3346 6.29579 23.229 6.27094 23.1107 6.24648C22.8428 6.19107 22.5096 6.13765 22.1515 6.09075C21.4031 5.99271 20.5457 5.92307 19.9458 5.92307C17.5232 5.92307 15.6923 6.44137 14.4143 7.51492C12.8718 8.81054 12.1348 10.915 12.1348 13.8932V16H8.83545V20.8893H12.1348V31.5288C5.16576 29.7998 0 23.5037 0 16C0 7.16345 7.16345 0 16 0Z" fill="black"/>
</g>
<defs>
<clipPath id="clip0_531_1061">
<rect width="32" height="32" fill="white"/>
</clipPath>
</defs>
</svg>
