<svg width="45" height="55" viewBox="0 0 45 55" fill="none" xmlns="http://www.w3.org/2000/svg">
<path d="M36.1871 18.782C36.7831 18.4825 37.9896 18.4753 38.9986 18.4904C40.1412 18.5112 41.477 18.5285 42.4077 18.5723C43.2099 18.6139 43.7262 18.6893 43.9108 18.8875C44.1636 19.2028 43.8189 19.6531 43.6228 20.023C41.3405 23.6677 36.5763 31.3386 34.373 34.7679C33.7087 35.8121 33.2125 35.0508 32.7127 34.3305C32.1726 33.5161 31.4006 32.2277 30.816 31.228C29.6462 29.2846 29.7474 28.4996 30.8469 26.7207C31.7568 25.1946 33.1012 22.9675 34.1518 21.2166C34.6904 20.3268 35.3827 19.0922 36.1655 18.7913L36.1864 18.782H36.1871Z" fill="white" stroke="white" stroke-width="0.711197" stroke-miterlimit="10"/>
<path d="M31.9227 37.5903C31.7625 36.9612 31.425 36.368 31.1018 35.7927C28.217 30.7016 24.0668 23.7317 21.4894 19.0664C21.0039 18.1435 20.7253 16.8788 21.3443 15.9703C22.1501 14.8543 23.3372 15.905 23.8564 16.7481C24.7268 18.0696 25.5046 19.5361 26.3132 20.8661C26.9229 21.8127 27.435 22.8512 28.533 22.7858C29.6045 22.5639 30.1869 21.3818 30.7765 20.5487C31.3704 19.6151 31.9895 18.647 32.2028 17.7011C32.4958 16.5499 32.0297 15.5078 31.471 14.5275C28.9014 10.1703 25.692 4.51613 22.9846 0.423955C21.572 -1.18548 20.1637 2.23807 19.4398 3.19612C17.3866 6.48824 14.8566 10.5194 12.9477 13.5889C12.3021 14.6 11.6471 15.7455 11.8611 16.9837C11.966 17.7112 12.3337 18.3891 12.692 19.0391C15.5991 24.2789 19.7184 31.4772 22.4417 36.4147C22.907 37.2707 23.3092 38.595 22.7734 39.4497C22.54 39.8282 22.1041 40.0012 21.6632 39.8504C20.4732 39.3563 19.8685 37.9386 19.1741 36.9059C18.015 34.9122 16.7309 33.0536 15.737 31.0298C14.4644 28.4429 13.1746 25.8431 11.7233 23.3245C10.8888 21.8759 10.0859 20.4482 9.28155 19.1432C8.75802 18.2922 8.26177 17.4972 7.20681 17.3212C5.50695 17.0964 3.28499 17.1998 1.54778 17.1187C0.546681 17.1094 -0.410614 17.1065 0.182578 18.3209C3.0638 23.7769 6.92745 30.1536 10.0277 35.6807C10.6812 36.8032 11.1243 37.8532 11.7139 39.0417C14.0364 43.4291 17.4548 48.9483 19.9001 53.1446C20.4761 54.094 21.3091 55.8277 22.5156 54.5429C23.1375 53.8929 23.5972 53.0246 24.0963 52.2526C26.1775 48.9052 28.7592 44.7663 30.6501 41.7241C31.4221 40.4982 32.35 39.133 31.932 37.6183L31.9248 37.5896L31.9227 37.5903Z" fill="white"/>
</svg>
