<svg width="25" height="25" viewBox="0 0 25 25" fill="none" xmlns="http://www.w3.org/2000/svg">
<path d="M6.25 10.4167H10.4167" stroke="white" stroke-width="2" stroke-linecap="round" stroke-linejoin="round"/>
<path d="M21.701 11.4583H18.9906C17.1313 11.4583 15.625 12.8573 15.625 14.5833C15.625 16.3094 17.1323 17.7083 18.9896 17.7083H21.701C21.7885 17.7083 21.8312 17.7083 21.8677 17.7062C22.4302 17.6719 22.8781 17.2562 22.9146 16.7344C22.9167 16.701 22.9167 16.6604 22.9167 16.5802V12.5864C22.9167 12.5062 22.9167 12.4656 22.9146 12.4323C22.8771 11.9104 22.4302 11.4948 21.8677 11.4604C21.8312 11.4583 21.7885 11.4583 21.701 11.4583Z" stroke="white" stroke-width="2"/>
<path d="M21.8386 11.4583C21.7573 9.50833 21.4969 8.3125 20.6542 7.47083C19.4344 6.25 17.4698 6.25 13.5417 6.25H10.4167C6.48858 6.25 4.524 6.25 3.30421 7.47083C2.08442 8.69167 2.08337 10.6552 2.08337 14.5833C2.08337 18.5115 2.08337 20.476 3.30421 21.6958C4.52504 22.9156 6.48858 22.9167 10.4167 22.9167H13.5417C17.4698 22.9167 19.4344 22.9167 20.6542 21.6958C21.4969 20.8542 21.7584 19.6583 21.8386 17.7083" stroke="white" stroke-width="2"/>
<path d="M6.25 6.25001L10.1406 3.6698C10.6879 3.31428 11.3265 3.12506 11.9792 3.12506C12.6318 3.12506 13.2704 3.31428 13.8177 3.6698L17.7083 6.25001" stroke="white" stroke-width="2" stroke-linecap="round"/>
<path d="M18.7407 14.5833H18.7507" stroke="white" stroke-width="2" stroke-linecap="round" stroke-linejoin="round"/>
</svg>
