<svg width="24" height="24" viewBox="0 0 24 24" fill="none" xmlns="http://www.w3.org/2000/svg">
<g clip-path="url(#clip0_537_3089)">
<path d="M9 10C9.55228 10 10 9.55228 10 9C10 8.44772 9.55228 8 9 8C8.44772 8 8 8.44772 8 9C8 9.55228 8.44772 10 9 10Z" stroke="black" stroke-width="2" stroke-linecap="round" stroke-linejoin="round"/>
<path d="M15 16C15.5523 16 16 15.5523 16 15C16 14.4477 15.5523 14 15 14C14.4477 14 14 14.4477 14 15C14 15.5523 14.4477 16 15 16Z" stroke="black" stroke-width="2" stroke-linecap="round" stroke-linejoin="round"/>
<path d="M7.99992 8.99988C7.99992 10.8564 8.73742 12.6369 10.0502 13.9496C11.3629 15.2624 13.1434 15.9999 14.9999 15.9999M5.99992 21.1999C8.27813 22.6867 11.0265 23.2765 13.7141 22.8555C16.4018 22.4345 18.8381 21.0325 20.5525 18.9202C22.267 16.808 23.1378 14.1353 22.997 11.4185C22.8562 8.70175 21.7136 6.13352 19.7899 4.20987C17.8663 2.28623 15.298 1.14364 12.5812 1.0028C9.86445 0.861955 7.19183 1.73284 5.07958 3.44726C2.96733 5.16167 1.5653 7.59799 1.14428 10.2857C0.723258 12.9733 1.31311 15.7217 2.79992 17.9999L1.99992 21.9999L5.99992 21.1999Z" stroke="black" stroke-width="2" stroke-linecap="round" stroke-linejoin="round"/>
</g>
<defs>
<clipPath id="clip0_537_3089">
<rect width="24" height="24" fill="white"/>
</clipPath>
</defs>
</svg>
